<svg width="34" height="34" viewBox="0 0 34 34" fill="none" xmlns="http://www.w3.org/2000/svg">
<path d="M22.8438 16.4713H18.4959C18.4167 16.2491 18.289 16.0472 18.1222 15.8804C17.9553 15.7135 17.7535 15.5859 17.5313 15.5066V9.03379C17.5313 8.89289 17.4753 8.75776 17.3757 8.65813C17.276 8.55851 17.1409 8.50254 17 8.50254C16.8591 8.50254 16.724 8.55851 16.6244 8.65813C16.5247 8.75776 16.4688 8.89289 16.4688 9.03379V15.5066C16.2152 15.5958 15.9883 15.7478 15.8095 15.9484C15.6306 16.149 15.5055 16.3917 15.4459 16.6538C15.3862 16.9159 15.3941 17.1889 15.4686 17.4471C15.5431 17.7054 15.6818 17.9406 15.8719 18.1306C16.062 18.3207 16.2971 18.4595 16.5554 18.534C16.8137 18.6085 17.0866 18.6163 17.3487 18.5567C17.6108 18.4971 17.8535 18.372 18.0541 18.1931C18.2547 18.0142 18.4067 17.7874 18.4959 17.5338H22.8438C22.9846 17.5338 23.1198 17.4778 23.2194 17.3782C23.319 17.2786 23.375 17.1434 23.375 17.0025C23.375 16.8616 23.319 16.7265 23.2194 16.6269C23.1198 16.5273 22.9846 16.4713 22.8438 16.4713ZM17 17.5338C16.8949 17.5338 16.7922 17.5026 16.7049 17.4443C16.6175 17.3859 16.5494 17.3029 16.5092 17.2058C16.469 17.1088 16.4585 17.0019 16.479 16.8989C16.4995 16.7958 16.5501 16.7012 16.6244 16.6269C16.6986 16.5526 16.7933 16.502 16.8964 16.4815C16.9994 16.461 17.1062 16.4715 17.2033 16.5117C17.3004 16.5519 17.3833 16.62 17.4417 16.7074C17.5001 16.7948 17.5313 16.8975 17.5313 17.0025C17.5311 17.1434 17.475 17.2784 17.3755 17.378C17.2759 17.4776 17.1408 17.5336 17 17.5338V17.5338ZM34 17.0025C34.0004 14.3227 33.3673 11.6808 32.1523 9.29226C30.9372 6.90373 29.1748 4.83627 27.0086 3.25856C24.8425 1.68084 22.3341 0.637568 19.688 0.213851C17.0419 -0.209867 14.3331 -0.00202472 11.7826 0.820421C9.23214 1.64287 6.91222 3.05662 5.01214 4.94633C3.11205 6.83604 1.68562 9.14818 0.849226 11.6941C0.0128302 14.2401 -0.209838 16.9477 0.199387 19.596C0.608612 22.2444 1.63814 24.7585 3.20397 26.9333C3.19562 26.9873 3.19012 27.0417 3.1875 27.0963V28.1588C3.18796 28.5813 3.35602 28.9864 3.65481 29.2852C3.9536 29.584 4.3587 29.7521 4.78125 29.7525H5.3125V30.9063C5.31302 31.4456 5.52745 31.9625 5.90873 32.3438C6.29001 32.7251 6.80698 32.9395 7.34619 32.94H7.52881C7.91127 32.939 8.28554 32.8292 8.60792 32.6234C8.73742 33.023 8.98983 33.3715 9.32913 33.6192C9.66844 33.8669 10.0773 34.001 10.4974 34.0025H10.7526C11.2822 34.0019 11.7898 33.7912 12.1642 33.4168C12.5387 33.0423 12.7493 32.5347 12.75 32.0052V29.7525H21.25V32.0052C21.2507 32.5347 21.4613 33.0423 21.8358 33.4168C22.2102 33.7912 22.7178 34.0019 23.2474 34.0025H23.5026C23.9227 34.001 24.3316 33.8669 24.6709 33.6192C25.0102 33.3715 25.2626 33.023 25.3921 32.6234C25.7145 32.8292 26.0887 32.939 26.4712 32.94H26.6538C27.193 32.9395 27.71 32.7251 28.0913 32.3438C28.4726 31.9625 28.687 31.4456 28.6875 30.9063V29.7525H29.2188C29.6413 29.7521 30.0464 29.584 30.3452 29.2852C30.644 28.9864 30.812 28.5813 30.8125 28.1588V27.0963C30.8099 27.0417 30.8044 26.9873 30.796 26.9333C32.886 24.0445 34.0076 20.5681 34 17.0025V17.0025ZM5.3125 28.69H4.78125C4.64041 28.6899 4.50539 28.6338 4.4058 28.5342C4.30621 28.4346 4.25018 28.2996 4.25 28.1588V27.0963C4.25018 26.9554 4.30621 26.8204 4.4058 26.7208C4.50539 26.6212 4.64041 26.5652 4.78125 26.565H5.3125V28.69ZM8.5 30.9063C8.49967 31.1638 8.39724 31.4107 8.21518 31.5927C8.03312 31.7748 7.78629 31.8772 7.52881 31.8775H7.34619C7.08872 31.8772 6.84188 31.7748 6.65982 31.5927C6.47776 31.4107 6.37533 31.1638 6.375 30.9063V25.4112C6.37533 25.1538 6.47776 24.9069 6.65982 24.7249C6.84188 24.5428 7.08872 24.4404 7.34619 24.44H7.52881C7.78629 24.4404 8.03312 24.5428 8.21518 24.7249C8.39724 24.9069 8.49967 25.1538 8.5 25.4112V30.9063ZM11.6875 32.0052C11.6873 32.253 11.5887 32.4907 11.4134 32.666C11.2382 32.8413 11.0005 32.9398 10.7526 32.94H10.4974C10.2495 32.9398 10.0118 32.8413 9.83656 32.666C9.66128 32.4907 9.56272 32.253 9.5625 32.0052V23.2499C9.56272 23.002 9.66128 22.7644 9.83656 22.5891C10.0118 22.4138 10.2495 22.3152 10.4974 22.315H10.7526C11.0005 22.3152 11.2382 22.4138 11.4134 22.5891C11.5887 22.7644 11.6873 23.002 11.6875 23.2499V32.0052ZM21.25 28.69H12.75V26.565H21.25V28.69ZM24.4375 25.4112V32.0052C24.4373 32.253 24.3387 32.4907 24.1635 32.666C23.9882 32.8413 23.7505 32.9398 23.5026 32.94H23.2474C22.9995 32.9398 22.7618 32.8413 22.5866 32.666C22.4113 32.4907 22.3127 32.253 22.3125 32.0052V23.2499C22.3127 23.002 22.4113 22.7644 22.5866 22.5891C22.7618 22.4138 22.9995 22.3152 23.2474 22.315H23.5026C23.7505 22.3152 23.9882 22.4138 24.1634 22.5891C24.3387 22.7644 24.4373 23.002 24.4375 23.2499V25.4112ZM27.625 30.9063C27.6247 31.1638 27.5222 31.4107 27.3402 31.5927C27.1581 31.7748 26.9113 31.8772 26.6538 31.8775H26.4712C26.2137 31.8772 25.9669 31.7748 25.7848 31.5927C25.6028 31.4107 25.5003 31.1638 25.5 30.9063V25.4112C25.5003 25.1538 25.6028 24.9069 25.7848 24.7249C25.9669 24.5428 26.2137 24.4404 26.4712 24.44H26.6538C26.9113 24.4404 27.1581 24.5428 27.3402 24.7249C27.5222 24.9069 27.6247 25.1538 27.625 25.4112V30.9063ZM27.8149 23.7456C27.475 23.5063 27.0695 23.3778 26.6538 23.3775H26.4712C26.1308 23.3798 25.7966 23.4686 25.5 23.6355V23.2499C25.4993 22.7204 25.2887 22.2127 24.9142 21.8383C24.5398 21.4639 24.0322 21.2532 23.5026 21.2525H23.2474C22.7179 21.2532 22.2102 21.4639 21.8358 21.8383C21.4613 22.2127 21.2507 22.7204 21.25 23.2499V25.5025H12.75V23.2499C12.7493 22.7204 12.5387 22.2127 12.1642 21.8383C11.7898 21.4639 11.2822 21.2532 10.7526 21.2525H10.4974C9.96784 21.2532 9.46019 21.4639 9.08576 21.8383C8.71132 22.2127 8.50067 22.7204 8.5 23.2499V23.6355C8.20337 23.4686 7.86917 23.3798 7.52881 23.3775H7.34619C6.9305 23.3778 6.52502 23.5063 6.18512 23.7456C5.01842 21.8763 4.35842 19.7355 4.27004 17.5338H5.84375C5.98465 17.5338 6.11977 17.4778 6.2194 17.3782C6.31903 17.2786 6.375 17.1434 6.375 17.0025C6.375 16.8616 6.31903 16.7265 6.2194 16.6269C6.11977 16.5273 5.98465 16.4713 5.84375 16.4713H4.27587C4.39214 13.461 5.58029 10.5912 7.62602 8.37977L8.73554 9.48929C8.83549 9.58725 8.97007 9.6418 9.11002 9.64109C9.24997 9.64039 9.38399 9.58448 9.48295 9.48552C9.58191 9.38655 9.63782 9.25254 9.63853 9.11258C9.63923 8.97263 9.58468 8.83806 9.48672 8.7381L8.37718 7.62849C10.5886 5.58259 13.4584 4.39443 16.4688 4.27841V5.84629C16.4688 5.98718 16.5247 6.12231 16.6244 6.22194C16.724 6.32156 16.8591 6.37754 17 6.37754C17.1409 6.37754 17.276 6.32156 17.3757 6.22194C17.4753 6.12231 17.5313 5.98718 17.5313 5.84629V4.27841C20.5416 4.39443 23.4114 5.58258 25.6228 7.62847L24.5132 8.73807C24.4631 8.78721 24.4232 8.84581 24.3958 8.91047C24.3685 8.97513 24.3542 9.04457 24.3539 9.11478C24.3535 9.18498 24.3671 9.25457 24.3938 9.3195C24.4205 9.38443 24.4598 9.44343 24.5094 9.49307C24.5591 9.54272 24.6181 9.58203 24.683 9.60873C24.7479 9.63544 24.8175 9.649 24.8877 9.64865C24.9579 9.64829 25.0274 9.63402 25.092 9.60667C25.1567 9.57931 25.2153 9.5394 25.2644 9.48926L26.374 8.37974C28.4197 10.5912 29.6079 13.4609 29.7241 16.4713H28.1563C28.0154 16.4713 27.8802 16.5273 27.7806 16.6269C27.681 16.7265 27.625 16.8616 27.625 17.0025C27.625 17.1434 27.681 17.2786 27.7806 17.3782C27.8802 17.4778 28.0154 17.5338 28.1563 17.5338H29.73C29.6416 19.7355 28.9816 21.8763 27.8149 23.7456V23.7456ZM29.75 28.1588C29.7498 28.2996 29.6938 28.4346 29.5942 28.5342C29.4946 28.6338 29.3596 28.6899 29.2188 28.69H28.6875V26.565H29.2188C29.3596 26.5652 29.4946 26.6212 29.5942 26.7208C29.6938 26.8204 29.7498 26.9554 29.75 27.0963V28.1588ZM30.2322 25.8765C29.9489 25.6365 29.59 25.5041 29.2188 25.5025H28.6875V25.4112C28.6875 25.1354 28.631 24.8625 28.5215 24.6093C29.898 22.5276 30.6848 20.1118 30.7982 17.6188C30.9117 15.1257 30.3476 12.6485 29.1658 10.4504C27.9841 8.25227 26.2289 6.41538 24.0868 5.13494C21.9447 3.8545 19.4956 3.17836 17 3.17836C14.5044 3.17836 12.0553 3.8545 9.91322 5.13494C7.7711 6.41538 6.0159 8.25227 4.83417 10.4504C3.65244 12.6485 3.08833 15.1257 3.20178 17.6188C3.31524 20.1118 4.10202 22.5276 5.47852 24.6093C5.36902 24.8625 5.31252 25.1354 5.3125 25.4112V25.5025H4.78125C4.40997 25.5041 4.05113 25.6365 3.76784 25.8765C2.38111 23.8089 1.49813 21.4452 1.18967 18.9748C0.881207 16.5044 1.15586 13.9961 1.9916 11.651C2.82735 9.30584 4.20093 7.18917 6.00223 5.47064C7.80352 3.75211 9.98242 2.47954 12.3642 1.75494C14.746 1.03035 17.2645 0.873902 19.7176 1.29814C22.1708 1.72237 24.4904 2.71549 26.4906 4.19787C28.4907 5.68024 30.1157 7.61064 31.2353 9.83428C32.3549 12.0579 32.9378 14.513 32.9375 17.0025C32.9423 20.1644 32.0001 23.2552 30.2322 25.8765V25.8765Z" fill="#F7931E"/>
</svg>
