<svg width="36" height="23" viewBox="0 0 36 23" fill="none" xmlns="http://www.w3.org/2000/svg">
<path fill-rule="evenodd" clip-rule="evenodd" d="M0.0511151 11.2516C0.051115 11.5831 0.18281 11.9011 0.417231 12.1355C0.651651 12.3699 0.969594 12.5016 1.30111 12.5016L30.7836 12.5016L22.9161 20.3666C22.7999 20.4828 22.7077 20.6208 22.6448 20.7726C22.5819 20.9245 22.5495 21.0872 22.5495 21.2516C22.5495 21.416 22.5819 21.5787 22.6448 21.7306C22.7077 21.8824 22.7999 22.0204 22.9161 22.1366C23.0323 22.2528 23.1703 22.345 23.3222 22.4079C23.474 22.4708 23.6368 22.5032 23.8011 22.5032C23.9655 22.5032 24.1282 22.4708 24.2801 22.4079C24.4319 22.345 24.5699 22.2528 24.6861 22.1366L34.6861 12.1366C34.8025 12.0205 34.8949 11.8825 34.9579 11.7307C35.0209 11.5788 35.0533 11.416 35.0533 11.2516C35.0533 11.0872 35.0209 10.9244 34.9579 10.7725C34.8949 10.6206 34.8025 10.4827 34.6861 10.3666L24.6861 0.366592C24.5699 0.250372 24.4319 0.158182 24.2801 0.0952838C24.1282 0.032386 23.9655 1.40507e-05 23.8011 1.40364e-05C23.6368 1.4022e-05 23.474 0.032386 23.3222 0.0952837C23.1703 0.158181 23.0323 0.250372 22.9161 0.366592C22.7999 0.482812 22.7077 0.620785 22.6448 0.772633C22.5819 0.924482 22.5495 1.08723 22.5495 1.25159C22.5495 1.41595 22.5819 1.5787 22.6448 1.73055C22.7077 1.8824 22.7999 2.02037 22.9161 2.13659L30.7836 10.0016L1.30112 10.0016C0.969594 10.0016 0.651651 10.1333 0.417231 10.3677C0.18281 10.6021 0.0511151 10.9201 0.0511151 11.2516Z" fill="white"/>
</svg>
