<svg width="35" height="23" viewBox="0 0 35 23" fill="none" xmlns="http://www.w3.org/2000/svg">
<path fill-rule="evenodd" clip-rule="evenodd" d="M35.0022 11.5001C35.0022 11.1686 34.8705 10.8507 34.6361 10.6162C34.4017 10.3818 34.0838 10.2501 33.7522 10.2501H4.26973L12.1372 2.38511C12.2535 2.26889 12.3456 2.13092 12.4085 1.97907C12.4714 1.82722 12.5038 1.66447 12.5038 1.50011C12.5038 1.33575 12.4714 1.173 12.4085 1.02116C12.3456 0.869307 12.2535 0.731334 12.1372 0.615114C12.021 0.498894 11.883 0.406704 11.7312 0.343806C11.5793 0.280908 11.4166 0.248535 11.2522 0.248535C11.0879 0.248535 10.9251 0.280908 10.7733 0.343806C10.6214 0.406704 10.4835 0.498894 10.3672 0.615114L0.367234 10.6151C0.250826 10.7312 0.158469 10.8692 0.0954531 11.021C0.032437 11.1729 0 11.3357 0 11.5001C0 11.6645 0.032437 11.8273 0.0954531 11.9792C0.158469 12.1311 0.250826 12.269 0.367234 12.3851L10.3672 22.3851C10.4835 22.5013 10.6214 22.5935 10.7733 22.6564C10.9251 22.7193 11.0879 22.7517 11.2522 22.7517C11.4166 22.7517 11.5793 22.7193 11.7312 22.6564C11.883 22.5935 12.021 22.5013 12.1372 22.3851C12.2535 22.2689 12.3456 22.1309 12.4085 21.9791C12.4714 21.8272 12.5038 21.6645 12.5038 21.5001C12.5038 21.3358 12.4714 21.173 12.4085 21.0212C12.3456 20.8693 12.2535 20.7313 12.1372 20.6151L4.26973 12.7501H33.7522C34.0838 12.7501 34.4017 12.6184 34.6361 12.384C34.8705 12.1496 35.0022 11.8316 35.0022 11.5001Z" fill="white"/>
</svg>
