<svg width="30" height="30" viewBox="0 0 30 30" fill="none" xmlns="http://www.w3.org/2000/svg">
<path d="M18.6679 15V14.9991C18.6679 14.151 18.3738 13.3291 17.8357 12.6735C17.2976 12.0179 16.5489 11.5691 15.7171 11.4036C14.8852 11.2381 14.0218 11.3662 13.2738 11.766C12.5258 12.1658 11.9395 12.8125 11.6149 13.5961C11.2903 14.3796 11.2474 15.2515 11.4936 16.0631C11.7397 16.8748 12.2596 17.5759 12.9648 18.0472C13.6699 18.5185 14.5166 18.7307 15.3607 18.6477C16.2048 18.5646 16.9939 18.1915 17.5937 17.5919C17.9341 17.2629 18.2046 16.8687 18.3891 16.4328C18.5737 15.9969 18.6685 15.5283 18.6679 15.055L18.667 14.9972V15H18.6679ZM20.6476 15C20.6432 16.3 20.1884 17.5584 19.3607 18.5609C18.533 19.5634 17.3835 20.2481 16.1078 20.4985C14.8321 20.7489 13.509 20.5495 12.3638 19.9343C11.2185 19.319 10.3219 18.3259 9.82638 17.124C9.33089 15.9221 9.26719 14.5856 9.64613 13.342C10.0251 12.0984 10.8232 11.0246 11.9048 10.3032C12.9863 9.58183 14.2844 9.25751 15.5781 9.38545C16.8719 9.51339 18.0813 10.0857 19.0006 11.0049C19.5226 11.5115 19.9375 12.1178 20.2206 12.7879C20.5037 13.458 20.6492 14.1782 20.6485 14.9056L20.6476 15.0055V15.0009V15ZM22.1937 9.12881V9.13064C22.1938 9.43599 22.088 9.73192 21.8944 9.96801C21.7008 10.2041 21.4313 10.3658 21.1318 10.4254C20.8323 10.4851 20.5215 10.4391 20.2521 10.2952C19.9828 10.1513 19.7717 9.91854 19.6548 9.63647C19.5378 9.3544 19.5223 9.04051 19.6109 8.7483C19.6994 8.45608 19.8866 8.20361 20.1404 8.0339C20.3943 7.8642 20.6991 7.78776 21.003 7.81762C21.3069 7.84747 21.591 7.98177 21.8069 8.19763C22.0416 8.42768 22.1873 8.74846 22.1873 9.10315V9.12973V9.12881H22.1937ZM15.0082 5.976L13.913 5.96867C13.2495 5.96378 12.7457 5.96378 12.4017 5.96867C12.0577 5.97356 11.597 5.98792 11.0196 6.01175C10.4834 6.03008 9.97475 6.08324 9.47709 6.16756L9.54399 6.15839C9.15447 6.22255 8.80895 6.3142 8.47809 6.43609L8.5175 6.42326C8.05008 6.61116 7.62502 6.89075 7.26739 7.24555C6.90975 7.60035 6.62679 8.02318 6.43518 8.48908L6.42601 8.51383C6.30837 8.83582 6.22123 9.16814 6.16572 9.50642L6.16114 9.54033C6.07962 10.0219 6.03093 10.5085 6.01541 10.9967L6.0145 11.0159C5.99067 11.5939 5.97631 12.0546 5.97142 12.398C5.96653 12.7414 5.96653 13.2452 5.97142 13.9093C5.97631 14.5735 5.97875 14.9386 5.97875 15.0046C5.97875 15.0706 5.97631 15.4356 5.97142 16.0998C5.96653 16.764 5.96653 17.2678 5.97142 17.6111C5.97631 17.9545 5.99067 18.4152 6.0145 18.9933C6.03283 19.5294 6.08599 20.0381 6.1703 20.5357L6.16114 20.4688C6.2253 20.8584 6.31695 21.2039 6.43884 21.5347L6.42601 21.4953C6.61391 21.9628 6.8935 22.3878 7.2483 22.7454C7.6031 23.1031 8.02593 23.386 8.49183 23.5777L8.51658 23.5868C8.80803 23.6959 9.15356 23.7875 9.50917 23.8471L9.54308 23.8517C9.97292 23.9268 10.4816 23.98 10.9985 23.9974L11.0177 23.9983C11.5958 24.0222 12.0565 24.0365 12.3999 24.0414C12.7432 24.0463 13.247 24.0463 13.9112 24.0414L15 24.0194L16.0952 24.0267C16.7588 24.0316 17.2626 24.0316 17.6066 24.0267C17.9506 24.0219 18.4113 24.0075 18.9887 23.9837C19.5248 23.9653 20.0335 23.9122 20.5312 23.8279L20.4643 23.837C20.8538 23.7729 21.1993 23.6812 21.5302 23.5593L21.4908 23.5722C21.9582 23.3843 22.3832 23.1047 22.7409 22.7499C23.0985 22.3951 23.3815 21.9722 23.5731 21.5063L23.5822 21.4816C23.6913 21.1901 23.783 20.8446 23.8425 20.489L23.8471 20.4551C23.9223 20.0252 23.9754 19.5166 23.9928 18.9997L23.9938 18.9804C24.0176 18.4024 24.0319 17.9417 24.0368 17.5983C24.0417 17.2549 24.0417 16.7512 24.0368 16.087C24.0319 15.4228 24.0295 15.0577 24.0295 14.9918C24.0295 14.9258 24.0319 14.5607 24.0368 13.8965C24.0417 13.2323 24.0417 12.7286 24.0368 12.3852C24.0319 12.0418 24.0176 11.5811 23.9938 11.0031C23.9754 10.4669 23.9223 9.95826 23.8379 9.46059L23.8471 9.52749C23.789 9.1641 23.696 8.80715 23.5694 8.46159L23.5822 8.501C23.3943 8.03358 23.1147 7.60852 22.7599 7.25089C22.4051 6.89326 21.9823 6.61029 21.5164 6.41868L21.4917 6.40952C21.1697 6.29188 20.8374 6.20473 20.4991 6.14923L20.4652 6.14464C19.9839 6.06317 19.4976 6.01448 19.0097 5.99892L18.9905 5.998C18.4125 5.97417 17.9518 5.95981 17.6084 5.95492C17.265 5.95004 16.7612 5.95004 16.0971 5.95492L15.0082 5.976ZM26 15C26 17.1862 25.9756 18.6994 25.9267 19.5395C25.97 20.3909 25.834 21.2419 25.5273 22.0374C25.2207 22.8329 24.7504 23.5551 24.1468 24.1572C23.5433 24.7593 22.82 25.2278 22.0237 25.5325C21.2275 25.8372 20.3761 25.9712 19.5248 25.9258L19.5395 25.9267C18.6994 25.9756 17.1862 26 15 26C12.8138 26 11.3006 25.9756 10.4605 25.9267C9.60908 25.97 8.75805 25.8339 7.96257 25.5273C7.16709 25.2207 6.4449 24.7504 5.84281 24.1468C5.24072 23.5433 4.77216 22.82 4.46749 22.0237C4.16282 21.2275 4.02884 20.3761 4.07424 19.5248L4.07332 19.5395C4.02444 18.6994 4 17.1862 4 15C4 12.8138 4.02444 11.3006 4.07332 10.4605C4.03 9.60908 4.16605 8.75805 4.47266 7.96257C4.77927 7.16709 5.24959 6.4449 5.85315 5.84281C6.45671 5.24072 7.18004 4.77216 7.97627 4.46749C8.7725 4.16282 9.62385 4.02884 10.4752 4.07424L10.4605 4.07332C11.3006 4.02444 12.8138 4 15 4C17.1862 4 18.6994 4.02444 19.5395 4.07332C20.3909 4.03 21.2419 4.16605 22.0374 4.47266C22.8329 4.77927 23.5551 5.24959 24.1572 5.85315C24.7593 6.45671 25.2278 7.18004 25.5325 7.97627C25.8372 8.7725 25.9712 9.62385 25.9258 10.4752L25.9267 10.4605C25.9756 11.3 26 12.8132 26 15Z" fill="white"/>
</svg>
