<svg width="64" height="64" viewBox="0 0 64 64" fill="none" xmlns="http://www.w3.org/2000/svg">
<path d="M56.44 49.464C58.5712 47.8896 59.96 45.368 59.96 42.52C59.96 38.6992 57.5024 35.384 53.848 34.264L49.1952 32.8368L51.3008 22.8144C55.7936 20.7344 59.16 16.6448 60.2352 11.6912C60.4848 10.5328 60.2096 9.3488 59.4672 8.4336C58.7376 7.5248 57.6368 7 56.4592 7H56.2928C54.5648 7 53.1056 8.216 52.7536 9.9568C52.088 13.2144 49.5536 15.7488 46.3024 16.4272C44.8688 16.7216 43.7744 17.8608 43.4416 19.2688C43.3968 19.352 43.3648 19.4416 43.3456 19.5376L41.0672 30.3536L21.432 24.344L19.608 19.8H20.6512C22.9168 19.8 24.76 17.9568 24.76 15.6912C24.76 13.7648 23.3904 12.0752 21.5088 11.6656L10.6736 9.3488C9.1056 9.0096 7.4928 9.3936 6.2448 10.4048C4.9968 11.4096 4.28 12.9136 4.28 14.5136C4.28 17.432 6.648 19.8 9.5664 19.8H10.456L12.2608 24.3184C10.968 24.7728 9.7328 25.4256 8.5936 26.2704C5.0352 28.8944 3 32.9392 3 37.3616C3 42.104 5.4064 46.2896 9.0544 48.7792C5.5984 49.5216 3 52.6 3 56.28C3 56.984 3.576 57.56 4.28 57.56H59.32C60.024 57.56 60.6 56.984 60.6 56.28C60.6 53.3168 58.9104 50.744 56.44 49.464ZM46.8272 18.9296C51.0768 18.0464 54.3856 14.7248 55.2624 10.4688C55.3712 9.9376 55.7936 9.56 56.2928 9.56H56.4592C57.0096 9.56 57.336 9.8608 57.4768 10.04C57.7264 10.3472 57.8224 10.7504 57.7328 11.1472C56.6192 16.2736 52.5936 20.2992 47.4672 21.4128C47.0704 21.5024 46.6608 21.4064 46.3536 21.1568C46.1744 21.016 45.88 20.696 45.88 20.1648C45.88 19.5632 46.2768 19.0448 46.8272 18.9296ZM45.144 23.416C45.7584 23.8 46.456 24.0048 47.1728 24.0048C47.448 24.0048 47.7296 23.9792 48.0112 23.9152C48.1648 23.8832 48.3248 23.832 48.4784 23.7936L46.7376 32.088L43.5248 31.1088L45.144 23.416ZM9.5664 17.24C8.0624 17.24 6.84 16.0176 6.84 14.5136C6.84 13.688 7.2112 12.9136 7.8512 12.3952C8.344 11.9984 8.9456 11.7872 9.56 11.7872C9.752 11.7872 9.944 11.8064 10.136 11.8512L20.9712 14.1744C21.6816 14.3216 22.2 14.9616 22.2 15.6912C22.2 16.5424 21.5024 17.24 20.6512 17.24H9.5664ZM18.392 23.6528C17.176 23.5056 15.96 23.5248 14.7696 23.704L13.208 19.8H16.856L18.392 23.6528ZM5.56 37.3616C5.56 33.7584 7.2176 30.4688 10.1168 28.3248C12.088 26.8656 14.3984 26.1104 16.7664 26.1104C17.8736 26.1104 18.9872 26.2768 20.088 26.616L53.0992 36.7088C55.672 37.496 57.4 39.832 57.4 42.52C57.4 45.8736 54.6736 48.6 51.32 48.6H16.7984C10.6032 48.6 5.56 43.5568 5.56 37.3616ZM5.72 55C6.2896 52.792 8.2992 51.16 10.68 51.16H52.92C55.3008 51.16 57.3104 52.792 57.88 55H5.72ZM22.072 43.544L23.9408 45.1056C23.96 45.1184 23.9792 45.1312 23.9984 45.144C24.024 45.1632 24.056 45.1824 24.088 45.2016C24.1264 45.2272 24.1648 45.2464 24.2032 45.2656C24.2352 45.2848 24.2672 45.2976 24.2928 45.3104C24.344 45.3296 24.3888 45.3424 24.44 45.3552C24.4656 45.3616 24.4912 45.368 24.5232 45.3744C24.6 45.3936 24.6768 45.4 24.76 45.4H27.96C28.664 45.4 29.24 44.824 29.24 44.12C29.24 43.416 28.664 42.84 27.96 42.84H25.2208L23.7104 41.5792C24.376 40.4464 24.76 39.128 24.76 37.72C24.76 33.4832 21.3168 30.04 17.08 30.04C12.8432 30.04 9.4 33.4832 9.4 37.72C9.4 41.9568 12.8432 45.4 17.08 45.4C18.9872 45.4 20.728 44.696 22.072 43.544ZM11.96 37.72C11.96 34.8976 14.2576 32.6 17.08 32.6C19.9024 32.6 22.2 34.8976 22.2 37.72C22.2 38.5008 22.0208 39.2432 21.7008 39.9088L17.8992 36.7344C17.3552 36.2864 16.5488 36.3568 16.0944 36.9008C15.6464 37.4448 15.7168 38.2512 16.2608 38.7056L20.0624 41.8736C19.224 42.4816 18.1936 42.84 17.08 42.84C14.2576 42.84 11.96 40.5424 11.96 37.72ZM33.08 44.12C33.08 43.416 33.656 42.84 34.36 42.84H35.64C36.344 42.84 36.92 43.416 36.92 44.12C36.92 44.824 36.344 45.4 35.64 45.4H34.36C33.656 45.4 33.08 44.824 33.08 44.12ZM40.76 44.12C40.76 43.416 41.336 42.84 42.04 42.84H43.32C44.024 42.84 44.6 43.416 44.6 44.12C44.6 44.824 44.024 45.4 43.32 45.4H42.04C41.336 45.4 40.76 44.824 40.76 44.12ZM48.44 44.12C48.44 43.416 49.016 42.84 49.72 42.84H51C51.704 42.84 52.28 43.416 52.28 44.12C52.28 44.824 51.704 45.4 51 45.4H49.72C49.016 45.4 48.44 44.824 48.44 44.12Z" fill="#F7931E"/>
</svg>
